# xmcd CD database file
# Copyright (C) 1997 Ti Kan
# 
# Track frame offsets:
#     150
#     17655
#     25010
#     29257
#     53637
#     66662
#     82200
#     89910
#     106704
#     117487
# 
# Disc length: 1757 seconds
# 
# Revision: 1
# Processed by: cddbd v1.4b41PL1 Copyright (c) Steve Scherf et al.
# Submitted via: DiscPlay 4.0.3
# 
DISCID=8406db0a
DTITLE=Almir Sater - Instrumental
DYEAR=1900
DGENRE=
TTITLE0=Corumb 
TTITLE1=Minas Gerais
TTITLE2=Vinheta do Capeta
TTITLE3=Luzeiro
TTITLE4=Benzinho
TTITLE5=Rio de L grimas
TTITLE6=Na Piratininga: de Jeep
TTITLE7=Doma
TTITLE8=Viola de Buriti
TTITLE9=E de Minas pra Riba
EXTD=
EXTT0=
EXTT1=
EXTT2=
EXTT3=
EXTT4=
EXTT5=
EXTT6=
EXTT7=
EXTT8=
EXTT9=
PLAYORDER=
